<?xml version="1.0" standalone="no"?>
<!DOCTYPE svg PUBLIC "-//W3C//DTD SVG 20010904//EN"
 "http://www.w3.org/TR/2001/REC-SVG-20010904/DTD/svg10.dtd">
<svg version="1.0" xmlns="http://www.w3.org/2000/svg"
 width="800.000000pt" height="800.000000pt" viewBox="0 0 800.000000 800.000000"
 preserveAspectRatio="xMidYMid meet">

<g transform="translate(0.000000,800.000000) scale(0.100000,-0.100000)"
fill="#000000" stroke="none">
<path d="M4117 7724 c-15 -16 -7 -56 13 -61 15 -4 20 -14 20 -39 0 -24 5 -34
15 -34 10 0 15 -10 15 -28 0 -16 9 -37 20 -47 23 -21 27 -75 6 -75 -8 0 -16
-7 -20 -15 -3 -8 -16 -15 -29 -15 -26 0 -52 -22 -40 -33 16 -17 48 -3 93 41
44 43 50 54 50 89 0 27 5 43 15 47 11 4 15 20 15 55 0 41 3 50 21 54 16 4 20
12 17 34 -4 38 -32 37 -36 -2 -2 -16 -10 -34 -18 -38 -9 -5 -14 -25 -14 -57 0
-38 -4 -50 -15 -50 -9 0 -18 7 -21 15 -3 8 -14 17 -25 20 -13 4 -19 16 -19 35
0 16 -6 33 -14 37 -8 4 -16 21 -18 37 -3 29 -18 43 -31 30z"/>
<path d="M3937 7653 c-4 -3 -7 -15 -7 -26 0 -10 -9 -30 -20 -44 -11 -14 -20
-35 -20 -45 0 -11 9 -22 20 -25 19 -5 20 -14 20 -288 0 -242 -2 -284 -15 -289
-17 -6 -20 -42 -5 -51 7 -4 10 -245 10 -690 0 -674 0 -684 -20 -695 -11 -6
-20 -19 -20 -30 0 -11 9 -24 20 -30 20 -11 20 -21 20 -695 l0 -685 -688 0
c-678 0 -688 0 -705 20 -14 17 -21 18 -37 10 -11 -6 -20 -15 -20 -20 0 -15
-1383 -13 -1398 2 -9 9 -17 7 -35 -10 -23 -22 -27 -22 -370 -22 -302 0 -347
-2 -347 -15 0 -13 45 -15 347 -15 344 0 347 0 370 -22 20 -19 27 -20 43 -10
31 19 1390 17 1390 -2 0 -23 39 -26 59 -5 17 19 38 19 702 17 l684 -3 3 -682
c2 -674 2 -682 -18 -693 -27 -14 -27 -56 0 -63 20 -5 20 -14 20 -690 0 -447
-3 -688 -10 -692 -15 -9 -12 -41 5 -55 13 -11 15 -63 15 -361 0 -340 4 -390
31 -348 5 8 9 169 9 358 0 315 1 345 17 356 17 13 17 14 0 32 -16 18 -17 68
-17 710 0 602 2 692 15 703 17 14 20 50 5 50 -7 0 -10 237 -10 690 l0 690 690
0 c437 0 690 -4 690 -10 0 -5 9 -14 20 -20 15 -8 24 -6 40 10 20 20 31 20 705
20 450 0 685 -3 685 -10 0 -17 35 -11 53 10 16 19 29 20 285 20 195 0 271 -3
280 -12 19 -19 14 -27 -20 -30 -21 -2 -33 -8 -33 -18 0 -24 42 -24 57 -1 8 13
23 21 39 21 14 0 34 9 44 20 10 11 29 20 42 20 14 0 23 6 23 15 0 10 -10 15
-30 15 -19 0 -33 7 -40 20 -7 13 -21 20 -39 20 -16 0 -31 7 -35 15 -7 19 -70
21 -64 3 3 -7 19 -14 36 -16 34 -3 44 -25 16 -36 -9 -3 -137 -6 -284 -6 -263
0 -270 0 -281 21 l-11 21 -22 -21 c-22 -21 -26 -21 -708 -21 -674 0 -685 0
-703 20 l-18 20 -22 -20 c-21 -20 -31 -20 -711 -18 l-689 3 -3 699 c-2 655 -1
699 15 711 17 13 17 14 0 32 -16 18 -17 68 -17 708 0 640 1 690 17 708 17 18
17 19 0 32 -15 11 -17 38 -17 294 0 243 2 281 15 281 11 0 15 11 15 35 0 22
-6 38 -15 41 -8 4 -15 16 -15 29 0 24 -22 49 -33 38z"/>
<path d="M3862 7478 c2 -18 8 -33 13 -33 6 0 11 15 13 33 3 24 -1 32 -13 32
-12 0 -16 -8 -13 -32z"/>
<path d="M4000 7487 c0 -31 27 -57 36 -34 9 25 0 51 -19 55 -12 3 -17 -3 -17
-21z"/>
<path d="M4157 7073 c-4 -3 -7 -75 -7 -160 0 -129 2 -153 15 -153 12 0 15 13
15 58 0 67 11 82 60 82 44 -1 90 -38 90 -74 0 -28 17 -43 32 -28 14 14 1 62
-17 62 -11 0 -15 11 -15 40 0 29 4 40 15 40 8 0 17 11 21 25 8 33 -3 75 -20
75 -8 0 -16 9 -19 20 -5 18 -14 20 -84 20 -44 0 -83 -3 -86 -7z m173 -83 l0
-51 -72 3 c-68 3 -73 5 -76 27 -2 12 -1 34 2 47 6 22 11 24 76 24 l70 0 0 -50z"/>
<path d="M4370 6776 c0 -9 7 -16 16 -16 17 0 14 22 -4 28 -7 2 -12 -3 -12 -12z"/>
<path d="M4152 5473 c2 -114 6 -157 16 -161 8 -2 12 12 12 51 0 81 4 87 60 87
33 0 50 -5 54 -15 3 -8 12 -15 21 -15 10 0 15 -10 15 -34 0 -36 26 -58 37 -30
7 18 -12 64 -27 64 -5 0 -10 16 -10 35 0 23 5 35 14 35 35 0 34 69 -1 109 -27
30 -30 31 -110 31 l-84 0 3 -157z m178 72 l0 -55 -69 0 c-74 0 -81 5 -81 59 0
41 17 51 87 51 l63 0 0 -55z"/>
<path d="M4517 5623 c-4 -3 -7 -19 -7 -35 0 -17 -5 -28 -14 -28 -18 0 -26 -22
-26 -71 0 -28 -4 -39 -15 -39 -12 0 -15 -13 -15 -55 l0 -55 -35 0 c-41 0 -44
-10 -12 -44 26 -28 47 -19 47 20 0 12 7 24 15 28 11 4 15 20 15 55 0 41 4 51
20 56 16 5 20 15 20 52 0 34 5 49 21 62 16 12 20 23 15 39 -7 22 -17 27 -29
15z"/>
<path d="M4620 5616 c0 -8 -7 -16 -15 -20 -17 -6 -21 -36 -4 -36 6 0 13 9 16
20 4 16 14 20 47 20 33 0 48 -6 69 -28 30 -31 36 -76 12 -86 -8 -3 -15 -12
-15 -21 0 -8 -5 -15 -11 -15 -5 0 -40 -29 -76 -65 -49 -47 -63 -66 -52 -70 25
-10 199 -1 199 10 0 6 -26 11 -57 13 -73 4 -112 32 -63 45 11 3 20 12 20 21 0
9 6 16 13 16 14 0 57 43 57 58 0 5 9 12 20 15 32 8 28 82 -6 113 -21 20 -36
24 -90 24 -48 0 -64 -3 -64 -14z"/>
<path d="M2487 4557 c-16 -11 -17 -31 -15 -177 l3 -165 24 -3 c32 -5 41 12 41
81 l0 57 35 0 c22 0 38 -6 41 -15 4 -8 12 -15 20 -15 9 0 14 -12 14 -35 0 -25
4 -35 16 -35 9 0 18 -9 21 -20 3 -11 10 -20 15 -20 5 0 18 -10 27 -21 25 -31
61 -18 61 21 0 16 7 33 16 38 10 5 18 28 21 56 3 27 12 50 19 53 9 3 14 22 14
52 0 36 5 49 21 59 15 10 24 11 32 3 18 -18 48 -13 54 9 8 30 59 27 89 -6 13
-14 24 -29 24 -35 0 -5 -41 -50 -91 -99 -71 -71 -89 -94 -84 -110 6 -18 15
-20 121 -20 97 0 116 3 121 16 12 31 -11 49 -68 54 l-54 5 63 62 c62 61 62 62
62 118 0 48 -3 58 -20 62 -11 3 -20 11 -20 18 0 18 -23 25 -85 25 -46 0 -59
-4 -87 -30 -28 -26 -33 -28 -36 -13 -10 52 -72 46 -72 -7 0 -19 -5 -30 -14
-30 -15 0 -26 -30 -26 -76 0 -19 -6 -34 -15 -38 -10 -4 -15 -20 -15 -51 0 -38
-3 -45 -20 -45 -15 0 -20 7 -20 25 0 14 -9 30 -20 37 -23 15 -27 48 -6 48 18
0 26 22 26 74 0 36 -5 47 -36 74 -33 30 -41 32 -108 32 -42 0 -79 -5 -89 -13z
m163 -97 l0 -40 -55 0 -55 0 0 40 0 40 55 0 55 0 0 -40z"/>
<path d="M1044 4537 c-9 -24 1 -307 11 -310 6 -1 11 24 13 58 4 72 13 85 61
85 43 -1 91 -38 91 -72 0 -13 9 -31 20 -41 11 -9 20 -24 20 -32 0 -20 36 -19
44 1 9 22 -1 34 -30 34 -21 0 -24 5 -24 35 0 24 -5 35 -15 35 -10 0 -15 10
-15 34 0 21 6 36 15 40 20 7 22 106 1 106 -7 0 -16 9 -19 20 -5 18 -14 20 -86
20 -58 0 -83 -4 -87 -13z m176 -82 l0 -55 -63 0 c-70 0 -87 10 -87 51 0 54 7
59 81 59 l69 0 0 -55z"/>
<path d="M5235 4528 c-3 -13 -4 -84 -3 -158 3 -118 5 -135 20 -138 14 -3 18 7
20 65 l3 68 38 3 c42 4 95 -30 96 -60 1 -28 12 -48 27 -48 8 0 14 -5 14 -11 0
-14 47 -59 61 -59 5 0 9 15 9 34 0 25 5 35 20 39 17 4 20 14 20 56 0 39 4 51
15 51 11 0 15 13 15 54 0 45 3 54 20 59 20 5 28 45 13 60 -11 11 -33 -14 -33
-38 0 -13 -7 -25 -15 -29 -10 -4 -15 -20 -15 -53 0 -37 -5 -51 -20 -61 -15 -9
-20 -23 -20 -57 0 -45 0 -45 -35 -45 -32 0 -35 2 -35 31 0 22 -5 32 -20 36
-15 4 -20 14 -20 38 0 25 5 35 20 40 29 9 29 94 1 102 -11 3 -21 13 -24 24 -5
17 -15 19 -86 19 -75 0 -81 -1 -86 -22z m175 -73 l0 -55 -54 0 c-78 0 -86 5
-86 54 0 24 3 46 7 49 3 4 35 7 70 7 l63 0 0 -55z"/>
<path d="M5705 4530 c-3 -11 -13 -20 -21 -20 -8 0 -14 -7 -14 -15 0 -8 7 -15
15 -15 8 0 15 7 15 15 0 11 12 15 48 15 40 0 53 -5 75 -28 28 -29 37 -82 15
-82 -16 0 -58 -44 -58 -59 0 -6 -6 -11 -12 -11 -7 -1 -33 -21 -58 -45 -31 -31
-41 -48 -34 -55 7 -7 48 -10 105 -8 76 2 94 6 94 18 0 11 -16 16 -65 20 -51 4
-66 9 -68 23 -2 9 1 17 7 17 14 0 61 45 61 59 0 6 6 11 13 11 6 0 22 11 35 24
31 33 30 96 -2 130 -20 22 -32 26 -84 26 -52 0 -62 -3 -67 -20z"/>
<path d="M6687 4543 c-10 -10 -8 -311 2 -317 17 -11 30 20 33 79 l3 60 38 3
c49 4 96 -30 96 -71 1 -20 7 -30 20 -34 11 -3 22 -14 25 -26 4 -18 8 -19 18
-9 11 11 10 16 -4 26 -10 7 -18 20 -18 29 0 26 -11 47 -26 47 -23 0 -18 63 6
78 30 18 26 102 -5 102 -7 0 -15 9 -18 20 -5 18 -14 20 -84 20 -44 0 -83 -3
-86 -7z m173 -88 l0 -56 -67 3 -68 3 -3 53 -3 52 70 0 71 0 0 -55z"/>
<path d="M7374 4469 c-4 -7 0 -17 9 -24 10 -7 17 -25 17 -40 0 -18 6 -28 20
-32 11 -3 20 -13 20 -23 0 -10 -9 -20 -20 -23 -14 -4 -20 -14 -20 -32 0 -15
-8 -34 -17 -41 -15 -10 -16 -15 -5 -26 10 -10 14 -9 18 9 3 12 14 23 25 26 14
4 19 14 19 36 0 29 3 31 35 31 32 0 35 -2 35 -31 0 -22 5 -32 19 -36 11 -3 22
-14 25 -26 4 -18 8 -19 18 -9 11 11 10 16 -4 26 -10 7 -18 26 -18 41 0 18 -6
28 -20 32 -11 3 -20 13 -20 23 0 10 9 20 20 23 14 4 20 14 20 32 0 15 8 34 18
41 14 10 15 15 4 26 -10 10 -14 9 -18 -9 -3 -12 -14 -23 -25 -26 -14 -4 -19
-14 -19 -36 0 -29 -3 -31 -35 -31 -32 0 -35 2 -35 31 0 22 -5 32 -20 36 -11 3
-20 11 -20 19 0 18 -17 27 -26 13z"/>
<path d="M2348 4383 c-19 -5 -30 -27 -22 -48 5 -11 22 -15 70 -15 64 0 64 0
64 29 0 21 -6 30 -22 35 -25 6 -64 6 -90 -1z"/>
<path d="M905 4360 c-12 -19 10 -32 51 -28 27 2 39 8 39 18 0 19 -79 27 -90
10z"/>
<path d="M4291 2751 c-20 -13 -3 -326 19 -326 11 0 16 16 20 65 l5 65 43 3
c36 3 48 -1 68 -23 13 -14 24 -35 24 -45 0 -11 9 -25 20 -32 11 -7 20 -16 20
-20 0 -14 51 -58 61 -53 5 4 9 19 9 34 0 20 6 30 20 34 17 4 20 14 20 54 0 37
5 51 19 60 11 7 22 26 26 44 4 17 15 39 25 49 16 16 20 17 31 4 16 -20 37 -18
51 6 18 28 67 26 96 -4 23 -25 29 -51 12 -61 -5 -3 -10 -13 -10 -21 0 -7 -31
-44 -70 -81 -38 -37 -70 -71 -70 -75 0 -4 48 -8 106 -8 80 0 105 3 102 13 -3
7 -30 14 -69 17 -50 4 -65 9 -67 23 -2 9 1 17 7 17 14 0 61 45 61 59 0 6 7 11
15 11 9 0 18 7 22 16 3 8 16 20 29 25 21 7 24 15 24 60 0 42 -3 52 -20 56 -11
3 -20 11 -20 18 0 18 -23 25 -85 25 -62 0 -85 -7 -85 -25 0 -21 -39 -25 -45
-5 -13 42 -65 33 -65 -11 0 -19 -7 -32 -21 -40 -21 -11 -23 -39 -4 -95 5 -16
2 -23 -14 -27 -18 -4 -21 -13 -21 -56 l0 -51 -35 0 c-32 0 -35 2 -35 31 0 22
-5 32 -20 36 -30 8 -27 58 5 79 37 24 36 95 -2 135 -26 27 -32 29 -108 29 -44
0 -86 -4 -94 -9z m169 -101 l0 -41 -57 3 c-52 3 -58 5 -61 26 -6 44 4 52 63
52 l55 0 0 -40z"/>
<path d="M4154 2549 c-11 -18 12 -31 52 -27 27 2 40 8 42 21 3 14 -4 17 -42
17 -25 0 -48 -5 -52 -11z"/>
<path d="M4294 1277 c-2 -7 -3 -78 -2 -157 3 -121 5 -145 18 -145 11 0 16 16
20 65 l5 65 48 3 c35 2 49 -1 53 -12 3 -9 12 -16 20 -16 9 0 14 -11 14 -28 0
-17 11 -37 29 -55 33 -31 41 -33 41 -12 0 8 -7 15 -15 15 -10 0 -15 10 -15 34
0 26 -5 36 -20 41 -15 5 -20 15 -20 40 0 24 5 34 20 38 16 4 20 14 20 52 0 38
-4 48 -20 52 -11 3 -20 12 -20 19 0 19 -168 20 -176 1z m176 -72 l0 -56 -67 3
-68 3 -3 39 c-5 61 0 66 73 66 l65 0 0 -55z"/>
<path d="M4150 1095 c0 -11 12 -15 50 -15 38 0 50 4 50 15 0 11 -12 15 -50 15
-38 0 -50 -4 -50 -15z"/>
</g>
</svg>
